name C:\Users\u0101727\Documents\MyRepositories\paper-ad\predictivesimulations_2d/Results/PredSim_2D/IK_c29.mot
datacolumns 11
datarows 30
range 0.63313786 0.91133480
endheader
time	pelvis_tilt	pelvis_tx	pelvis_ty	hip_flexion_l	hip_flexion_r	knee_angle_l	knee_angle_r	ankle_angle_l	ankle_angle_r	lumbar_extension	
          0.63313786	        -15.04131821	          0.85489781	          0.89991342	         25.68193690	         11.35955590	        -10.66031597	        -40.88878489	          8.50507387	         -0.31601059	         10.29020923	
          0.64273086	        -15.05837920	          0.86686995	          0.90135014	         24.76316617	         12.63236926	        -10.41334285	        -41.78570063	          8.60759110	          0.66035299	         10.25185410	
          0.65232386	        -15.07296039	          0.87878630	          0.90254331	         23.82909490	         13.93763952	        -10.14145751	        -42.57472908	          8.75082054	          1.71668743	         10.20951734	
          0.66191685	        -15.08504552	          0.89065450	          0.90349619	         22.88415841	         15.27034001	         -9.85250462	        -43.24778331	          8.92888746	          2.83532299	         10.16351943	
          0.67150985	        -15.09475625	          0.90248181	          0.90421941	         21.93227606	         16.62453275	         -9.55356500	        -43.79728940	          9.13531229	          3.99845434	         10.11432961	
          0.68110285	        -15.10225701	          0.91427447	          0.90472996	         20.97761676	         17.99437848	         -9.25217531	        -44.21552972	          9.36243184	          5.18823998	         10.06237795	
          0.69069585	        -15.10769174	          0.92603802	          0.90504857	         20.02472901	         19.37436451	         -8.95616112	        -44.49473537	          9.60219889	          6.38686246	         10.00800931	
          0.70028885	        -15.11121072	          0.93777843	          0.90519669	         19.07835624	         20.75803558	         -8.67377104	        -44.62791707	          9.84668230	          7.57653079	          9.95160473	
          0.70988184	        -15.11303631	          0.94950277	          0.90519459	         18.14171431	         22.13846802	         -8.41059494	        -44.60943576	         10.08854944	          8.73957398	          9.89370053	
          0.71947484	        -15.11348227	          0.96121934	          0.90506039	         17.21570472	         23.50875426	         -8.16809754	        -44.43520822	         10.32113907	          9.85862548	          9.83503136	
          0.72906784	        -15.11282866	          0.97293684	          0.90480960	         16.30180184	         24.86102114	         -7.94917309	        -44.10317301	         10.53767984	         10.91695036	          9.77632357	
          0.73866084	        -15.11132037	          0.98466347	          0.90445531	         15.40215530	         26.18729020	         -7.75743023	        -43.61240400	         10.73213032	         11.89910320	          9.71819843	
          0.74825384	        -15.10919934	          0.99640832	          0.90400818	         14.51833798	         27.47873033	         -7.59592591	        -42.96595680	         10.89988256	         12.79168015	          9.66139257	
          0.75784683	        -15.10672502	          1.00817978	          0.90347732	         13.65127824	         28.72736984	         -7.46666285	        -42.16828991	         11.03801465	         13.58444676	          9.60659306	
          0.76743983	        -15.10416280	          1.01998448	          0.90287079	         12.80182492	         29.92698612	         -7.37070482	        -41.22376797	         11.14541437	         14.27130775	          9.55429024	
          0.77703283	        -15.10175182	          1.03182873	          0.90219508	         11.97067879	         31.07187151	         -7.30971578	        -40.13908724	         11.22281150	         14.85065389	          9.50492539	
          0.78662583	        -15.09971338	          1.04371686	          0.90145552	         11.15816099	         32.15909460	         -7.28459079	        -38.91969453	         11.27301986	         15.32530509	          9.45868626	
          0.79621882	        -15.09825794	          1.05565252	          0.90065587	         10.36415839	         33.18726961	         -7.29573969	        -37.57059256	         11.30047978	         15.70153255	          9.41564228	
          0.80581182	        -15.09760164	          1.06763906	          0.89979806	          9.58842886	         34.15579954	         -7.34315967	        -36.09718539	         11.31048748	         15.98770001	          9.37577410	
          0.81540482	        -15.09802040	          1.07968117	          0.89888223	          8.83037226	         35.06308324	         -7.42634211	        -34.50720216	         11.30828916	         16.19294101	          9.33917105	
          0.82499782	        -15.09989358	          1.09178540	          0.89790726	          8.08897128	         35.90561644	         -7.54434347	        -32.80870117	         11.29750397	         16.32636542	          9.30614704	
          0.83459082	        -15.10353639	          1.10395989	          0.89687206	          7.36388437	         36.67887348	         -7.69750077	        -31.01328823	         11.27899442	         16.39674910	          9.27708470	
          0.84418381	        -15.10902429	          1.11621660	          0.89577929	          6.65597723	         37.37618183	         -7.88941122	        -29.14683214	         11.25113594	         16.41223418	          9.25257357	
          0.85377681	        -15.11639346	          1.12857371	          0.89464137	          5.96725881	         37.98464718	         -8.12623431	        -27.24321195	         11.20782942	         16.38010998	          9.23391191	
          0.86336981	        -15.12566843	          1.14105267	          0.89347999	          5.30088757	         38.48855020	         -8.41506952	        -25.33459975	         11.13662187	         16.30677421	          9.22281113	
          0.87296281	        -15.13653469	          1.15367223	          0.89231764	          4.66128543	         38.87846472	         -8.76439729	        -23.44887021	         11.02122120	         16.19761890	          9.22045207	
          0.88255581	        -15.14820795	          1.16644694	          0.89117226	          4.05368079	         39.15422341	         -9.18398121	        -21.60776754	         10.84508586	         16.05677664	          9.22724233	
          0.89214880	        -15.15948388	          1.17938963	          0.89005811	          3.48334221	         39.32269600	         -9.68407647	        -19.83282594	         10.59390705	         15.88685762	          9.24310953	
          0.90174180	        -15.16913623	          1.19251414	          0.88898732	          2.95517145	         39.39115332	        -10.27440227	        -18.13910865	         10.25484651	         15.68906429	          9.26813614	
          0.91133480	        -15.17601519	          1.20583493	          0.88796908	          2.47360484	         39.36643834	        -10.96354743	        -16.53853052	          9.81577822	         15.46330263	          9.30255931	
